<svg width="251" height="250" viewBox="0 0 251 250" fill="none" xmlns="http://www.w3.org/2000/svg">
<path fill-rule="evenodd" clip-rule="evenodd" d="M214.945 147.701C214.771 147.31 214.588 146.9 214.398 146.481C213.068 143.543 211.362 140.099 209.502 138.999C206.174 136.059 203.837 130.645 201.916 126.194" fill="currentColor"/>
<path fill-rule="evenodd" clip-rule="evenodd" d="M226.616 88.5651C231.766 96.1285 235.7 105.638 239.855 113.854L251 127.168L238.893 136.151C234.379 139.044 225.447 159.573 224.112 165.083C223.875 166.056 223.924 167.029 224.068 168.02L218.041 182.442C211.509 188.487 202.409 192.916 193.912 195.3C190.888 204.712 187.763 210.918 181.531 218.66L168.339 226.661C158.906 233.099 145.396 234.233 136.635 241.975L124.833 249.235L113.296 240.126C104.368 235.188 94.3524 232.385 85.8845 226.536L85.7485 226.315C84.7453 224.689 84.6852 224.591 82.7082 224.027L69.28 216.043C62.8543 209.873 59.261 203.471 56.0222 195.273C48.3232 192.336 41.3197 188.148 35.6396 182.129L21.9355 167.565C24.3964 158.707 14.8793 145.598 10.3886 138.374L0 124.649L8.87598 114.827C14.4284 104.165 19.3432 93.1728 24.3803 82.2609L32.4875 70.7774C39.6267 62.0086 45.1282 59.3476 55.8053 56.4276C58.4323 46.0872 62.6167 40.3634 69.7068 32.6482L81.0509 23.3436C90.2091 23.7008 105.503 13.8158 113.603 9.30097L124.228 0L137.978 10.2832C144.609 17.1018 157.911 21.9863 166.927 24.7188L181.992 36.6011C187.98 41.2973 191.495 50.3454 194.886 56.9991C202.615 60.5263 208.292 64.0803 214.274 70.1613L226.616 88.5651ZM55.8383 112.059L54.9176 109.835C53.4214 106.183 51.549 102.725 49.6769 99.2667C47.0542 94.4223 44.4322 89.5794 42.8467 84.2075C51.1994 75.9744 59.2583 72.8312 70.7891 71.849C71.5936 67.1967 72.4464 62.2944 73.9198 57.8117C75.9968 51.4807 79.1668 46.7034 85.1621 43.6227C94.3899 48.2839 103.69 52.8022 113.059 57.1688C102.077 69.9381 97.1697 79.5462 94.5997 96.3605C93.5934 96.4985 92.5503 96.6304 91.4822 96.7655C84.2567 97.6792 75.8946 98.7367 70.1283 102.79C69.7179 103.078 68.0327 104.41 66.0022 106.015C62.249 108.981 57.316 112.879 57.0732 112.845C56.7474 112.802 56.4866 112.582 56.225 112.36C56.0987 112.253 55.9723 112.146 55.8383 112.059ZM149.158 33.3358C140.538 37.6845 131.958 41.9796 123.064 45.7479C115.369 42.6115 108.239 38.6311 101.004 34.5918L100.833 34.4967C104.031 33.3086 107.175 31.49 110.348 29.6545C116.191 26.2751 122.133 22.8383 128.688 23.174C130.078 23.8925 131.466 24.6201 132.855 25.3484C138.217 28.1593 143.601 30.9813 149.158 33.3358ZM127.679 205.524C133.174 210.221 141.317 213.507 148.071 215.99C139.744 220.178 131.681 224.544 123.69 229.357C116.111 225.725 109.034 221.391 101.883 217.01L101.82 216.972C106.043 215.571 109.963 213.544 113.884 211.516C118.333 209.216 122.783 206.915 127.679 205.524ZM45.3479 124.899C40.7259 133.133 36.7603 141.366 32.8849 149.974C32.7019 149.519 32.5069 149.026 32.3003 148.504C30.2271 143.266 26.979 135.06 22.9311 132.177L22.5239 132.257L21.2345 131.364C21.1579 131.176 21.0774 130.983 20.9949 130.784C20.3026 129.119 19.4759 127.131 19.728 125.4C20.5799 119.533 27.9852 104.031 32.4625 100.62L33.6591 102.826C36.9828 108.152 39.8202 113.848 42.6383 119.504C43.5384 121.311 44.4365 123.114 45.3479 124.899ZM113.975 193.139C102.896 197.845 92.1057 203.078 81.2884 208.346C76.2866 202.942 74.4873 196.421 72.979 190.955C71.8005 186.685 70.7997 183.058 68.5879 181.111C65.7624 178.62 62.1323 177.871 58.1746 177.055C53.4495 176.08 48.2574 175.009 43.4101 170.762L43.3109 170.683C42.52 170.056 41.9622 169.614 41.5394 168.645C40.7277 166.779 40.7947 165.636 41.5296 163.725C42.9771 159.966 53.9943 137.437 56.2776 136.356L58.2877 138.508C70.6757 147.045 80.107 153.072 95.2096 155.992C97.0796 169.192 102.975 177.523 109.922 187.34C111.242 189.205 112.6 191.123 113.975 193.139ZM216.644 102.888C220.509 109.666 224.252 116.506 227.867 123.426C226.473 128.861 223.828 133.839 221.181 138.819C219.266 142.422 217.351 146.025 215.909 149.804C215.626 149.23 215.303 148.505 214.945 147.701C214.771 147.31 214.588 146.9 214.398 146.481C213.068 143.543 211.362 140.099 209.502 138.999C206.174 136.059 203.837 130.645 201.916 126.194L201.915 126.192C201.602 125.466 201.299 124.765 201.005 124.105C202.912 121.219 204.614 117.446 206.33 113.644C208.718 108.351 211.131 103.001 214.156 99.9146C215.533 100.402 215.796 101 216.253 102.04C216.365 102.295 216.489 102.576 216.644 102.888ZM137.459 194.559C147.061 181.566 152.97 172.155 154.004 155.778C167.429 154.028 183.477 149.554 192.889 139.142C199.076 145.58 204.387 157.805 207.542 166.181C201.463 173.95 195.656 177.218 185.822 178.414C183.247 178.727 180.668 178.995 178.086 179.236C178.455 191.844 175.139 198.881 166.57 207.953C166.343 208.194 166.113 208.427 165.878 208.659C156.462 203.881 147.097 198.872 137.459 194.559ZM138.223 57.8475C148.237 52.3291 158.469 47.5249 169.267 43.7387C176.01 52.4451 177.777 59.2047 179.255 69.9649C181.937 70.9614 184.562 71.8046 187.136 72.6314C194.226 74.9087 200.927 77.0611 207.347 81.9483C202.56 92.9406 197.511 104.424 191.196 114.631C180.385 103.111 170.116 99.2449 155.003 96.0124C151.986 83.2074 147.97 68.8754 137.404 59.9995C137.487 59.4724 137.741 58.9163 137.981 58.3919L138.045 58.2528C138.108 58.1147 138.168 57.9792 138.223 57.8475ZM99.3717 114.086C106.58 115.863 113.579 118.399 120.249 121.658L119.832 120.58C116.465 111.878 113.299 103.696 112.54 94.2622C114.511 83.1934 119.537 76.7895 126.311 68.1585L126.4 68.045C131.672 75.519 138.334 85.1719 136.743 94.7176C136.43 96.5906 135.564 99.1876 134.619 102.02C132.559 108.196 130.125 115.491 132.241 118.845L132.472 118.908C133.673 119.239 134.653 119.508 135.942 119.256C138.713 118.625 141.218 117.892 143.615 117.19C150.109 115.289 155.813 113.619 163.875 114.845C164.748 115.19 165.659 115.533 166.589 115.884C171.656 117.796 177.318 119.932 180.824 123.757L181.198 125.141C177.272 131.159 167.675 135.454 160.85 136.954C150.043 139.331 139.975 134.935 130.294 130.708L129.978 130.57C130.451 132.056 130.933 133.517 131.409 134.958C135.583 147.61 139.249 158.723 132.207 172.039C130.022 176.173 127 179.522 123.886 182.959C119.035 177.191 115.56 171.878 112.787 164.788C112.172 156.565 114.191 150.378 115.992 144.856C117.367 140.639 118.616 136.81 118.47 132.758C115.423 131.008 109.775 133.205 104.596 135.22C101.74 136.332 99.027 137.388 96.9705 137.696C85.2362 139.437 76.6826 133.784 67.812 127.096L68.0843 126.828C77.246 117.89 86.5319 113.979 99.3717 114.086Z" fill="currentColor"/>
</svg>
